<?xml version="1.0" encoding="utf-8"?>
<!-- Generator: Adobe Illustrator 24.0.1, SVG Export Plug-In . SVG Version: 6.00 Build 0)  -->
<svg version="1.1" id="Layer_1" xmlns="http://www.w3.org/2000/svg" xmlns:xlink="http://www.w3.org/1999/xlink" x="0px" y="0px"
	 viewBox="0 0 198 94" style="enable-background:new 0 0 198 94;" xml:space="preserve">
<g>
	<polygon points="92.94,14.51 92.94,14.5 92.94,14.5 	"/>
	<path d="M196.31,11.02c-3.42-3.24-9.04-2.48-12.45,0.33c-0.46,0.38-3.78,3.6-3.95,3.47c0.19,0.14,0.38,0.29,0.56,0.44l-0.13,0.08
		c-0.78,0.44-1.57,0.81-2.41,1.13c-0.64,0.24-1.6,0.43-2.41,0.48c0.32-0.02,0.26-2.56,0.22-2.84c-0.12-0.87-0.43-1.69-0.96-2.39
		c-2.15-2.78-6.26-3.49-9.57-3.49c-5.49,0-10.77,2.26-14.64,6.12c-0.86,0.86-1.62,1.81-2.41,2.73c-0.13,0.16-0.27,0.32-0.39,0.48
		c-0.35,0.46-0.71,0.91-1.05,1.36c-0.09,0.13-0.19,0.25-0.28,0.38c-0.26,0.35-0.52,0.7-0.78,1.04c-0.39,0.52-0.78,1.05-1.17,1.57
		c-0.49,0.65-0.98,1.31-1.47,1.96c-0.55,0.74-1.1,1.48-1.65,2.22c-0.58,0.78-1.16,1.56-1.74,2.34c-0.58,0.77-1.15,1.55-1.72,2.32
		c-1.34,1.82-2.72,3.65-4.05,5.49c-0.21,0.29-0.43,0.59-0.64,0.88c-0.04,0.06-0.08,0.12-0.12,0.18c0.09-0.04,0.34-0.02,0.44-0.02
		c1.25,0.13,2.04,1.34,2.12,2.52c0.12,1.91-1.39,3.64-3.04,4.38c-1.09,0.49-2.35,0.8-3.54,0.56c-0.57-0.12-1.07-0.53-1.46-0.95
		c-0.56-0.61-0.94-1.37-1.13-2.18c-0.38-1.68,0.77-2.9,1.94-3.92c0.59-0.51,1.29-0.99,1.78-1.61c0.14-0.18,1-1.9,1.09-1.88
		c-0.99-0.19-2.1-0.78-2.94-0.51c-0.42,0.14-0.81,0.33-1.17,0.55c-0.32,0.18-0.67,0.39-1.03,0.63c-1.57,1.04-3.48,2.57-5.12,3.89
		c-0.77,0.62-1.48,1.18-2.07,1.63c0.11-0.1,0.23-0.2,0.35-0.31c4.28-3.46,7.35-8.32,8.48-13.27c0.14-0.59,0.2-1.15,0.2-1.68
		c0.02-0.54-0.04-1.11-0.18-1.65c-0.18-0.68-0.48-1.32-0.91-1.88c-0.13-0.17-0.27-0.32-0.42-0.47c0,0-0.46-0.48-1.2-0.93l-0.05-0.04
		c-1.49-1.01-3.43-1.59-5.41-1.8c3.91-0.13,7.78-0.65,11.64-1.52c5.27-1.19,10.66-2.75,14.95-6.17c1.68-1.34,3.19-3.01,3.89-5.04
		c0.7-2.04,0.45-4.49-1.02-6.06c-0.5,0.36-1.08,0.63-1.68,0.77c1.1,1.7,0.75,4.05-0.39,5.74c-2.64,3.9-7.4,5.74-11.91,6.29
		c-2.71,0.33-5.44,0.22-8.12-0.3c-0.9-0.17-1.79-0.41-2.63-0.78c-0.66-0.29-1.31-0.63-1.96-0.95c-3.49,2.09-6.67,4.7-9.02,7.91
		c1.21,0.09,2.41,0.14,3.61,0.15c0.61,0.03,1.75,0.07,2.16,0.07c1.82,0.14,3.63,0.59,5.11,1.4c0.32,0.18,0.82,0.51,1.14,0.86
		c0.06,0.08,0.13,0.16,0.19,0.25c0.57,0.82,0.84,1.81,0.85,2.8c0.01,0.57-0.11,1.14-0.35,1.66c-0.12,0.27-0.28,0.51-0.47,0.74
		c-0.02,0.03-0.06,0.08-0.12,0.14c-0.9,0.91-2.37,0.47-2.37,0.47c-0.96,4.43-4.76,9.46-10.18,12.43c-5.42,2.97-7.62-0.58-7.62-0.58
		l-2.23,2.61l-1.95,2.33c-2.56-1.25-4.61-3.45-5.78-6.54c1.9-2.48,3.8-4.96,5.66-7.46c2.29-3.08,4.56-6.18,6.56-9.46
		c0.94-1.54,1.84-3.15,2.17-4.93c0.33-1.77,0.02-3.76-1.21-5.08c-1.45-1.56-3.85-1.77-5.96-1.95c0.25,0.12,0.52,0.36,0.72,0.56
		c0.99,0.98,1.8,2.48,1.4,3.92c-0.18,1.65-1.01,3.13-1.86,4.55c-1,1.66-2.16,3.22-3.33,4.76c-2.04,2.71-4.07,5.42-6.11,8.12
		c-0.25-0.71-0.54-1.41-0.91-2.08c-0.24-0.42-0.5-0.86-0.85-1.21c-1.92-1.95-4.46-2.77-7.07-2.77c-1.81,0-3.66,0.4-5.37,1.08
		l-0.02,0.01c-0.47,0.16-0.95,0.39-1.39,0.64c-1.07,0.56-2.07,1.22-2.92,1.98c-0.96,0.79-1.86,1.67-2.66,2.62
		c-2.49,2.97-7.14,10.94-2.72,14.15c0.13,0.1,0.27,0.19,0.42,0.27c0.92,0.51,2.14,0.39,2.9-0.36c0.5-0.49,0.86-1.38,0.51-2.05
		l-0.03-0.05c-0.62-1.04-1.81,0.13-2.6-0.39c-1.8-1.2,2.16-5.67,3-6.55c1.29-1.35,2.65-2.61,3.97-3.91
		c-0.72-0.41-1.46-0.66-1.7-1.57c-0.31-1.15,0.61-2.17,1.36-2.92c1-1.01,1.93-1.59,3.25-2.09c1.29-0.49,2.64-0.71,4.02-0.71
		c2.58,0,5.08,0.81,6.97,2.73c0.33,0.33,0.59,0.77,0.83,1.18c0.38,0.68,0.68,1.4,0.93,2.14c-0.42,0.56-0.84,1.11-1.26,1.67
		c-1.39,1.85-2.81,3.75-3.49,5.96c-0.68,2.21-0.47,4.84,1.11,6.54c1.86-2.4,3.73-4.8,5.58-7.21c1.3,3.38,3.65,5.7,6.56,6.88
		c2.52,1.16,5.53,1.28,8.63,0.53l0.03-0.01c0.51-0.13,1.03-0.27,1.55-0.45c0.51-0.17,1.01-0.37,1.52-0.59
		c0.1-0.04,0.2-0.08,0.3-0.13c0.23-0.1,0.49-0.23,0.77-0.37c0.1-0.05,0.2-0.1,0.29-0.15c0.92-0.49,1.96-1.11,2.56-1.47
		c0.37-0.15,1.04-0.63,1.91-1.31c1.39-1.08,3.25-2.63,4.98-3.92c0.61-0.46,1.21-0.88,1.77-1.24c-1.72,1.69-2.29,4.5-1.43,6.82
		c0.63,1.71,2.36,2.8,4.1,3.11c2.11,0.38,4.24-0.6,5.85-1.91c0.58-0.47,1.12-1.01,1.59-1.6c0.34-0.4,0.67-0.82,0.99-1.22
		c0.55-0.67,1.09-1.35,1.62-2.04c0.48-0.62,0.92-1.38,1.49-1.92c1.06-1.31,2.16-2.6,3.17-3.95c1.23-1.64,2.49-3.26,3.73-4.9
		c1.24-1.63,2.48-3.27,3.65-4.95c0.59-0.84,1.16-1.68,1.71-2.54c0.32-0.49,0.64-0.98,0.94-1.48c0.15-0.25,0.3-0.51,0.44-0.78
		c0.03-0.05,0.33-0.73,0.33-0.73c-0.5-0.08-1.17-0.46-1.41-0.83c-0.77-1.18-0.19-2.25,0.54-3.19c0.89-1.15,2.89-2.57,4.25-3.09
		c1.19-0.46,2.38-0.77,3.55-1.01c2.65-0.53,7.21,0.03,8.43,2.89c0.4,0.94,0.34,2.02,0.04,2.99c-0.35,1.16-1.01,2.23-1.61,3.27
		c-2.13,3.7-4.67,7.13-7.2,10.56c-2.27,3.07-5.38,6.32-6.66,9.96c-0.64,1.81-0.33,4.82,0.84,6.18c-1.56,0.76-3.42,0.93-5.84,0.19
		c0.97-1.56,1.71-3.04,2.71-4.32l-4.83,4.76c-2.36,2-5.13,3.42-7.97,4.71c-14.85,6-30.69,13.61-41.23,26.06
		c-1,1.18-2.87,3.46-4.5,6.04c-1.63,2.58-3.01,5.44-3.01,7.79c0,1.14,0.33,2.17,1.13,2.96c0.82,0.82,1.98,1.13,3.28,1.13
		c3.4,0,7.79-2.15,9.88-3.2c3.57-1.8,6.84-4.17,9.95-6.72c1.04-0.85,2.06-1.66,3.17-2.41c1.08-0.74,2.2-1.5,3.34-2.17
		c1.07-0.62,2.53-1.31,3.78-0.96c1.08,0.31,1.65,1.31,1.28,2.38c0.22,0.12,0.43,0.27,0.65,0.4c9.71-11.98,19.35-24,28.64-36.31
		c0.16-0.22,0.33-0.43,0.49-0.65c0.13-0.17,0.26-0.34,0.38-0.51c3.35-4.49,6.84-8.87,10.25-13.32c1.99-2.59,6.98-7.97,8.52-12.85
		c-0.01-0.24-0.41-0.25-0.41-0.25l-0.48,0l0-0.26l1.04-0.01l0-0.02c0.84-0.05,1.82-0.24,2.5-0.5c0.85-0.32,1.64-0.69,2.43-1.14
		c0.08-0.05,0.15-0.09,0.23-0.14c0.35-0.21,0.66-0.43,0.95-0.65c1.14-0.8,2.87-2.03,3.12-2.19c1.33-0.81,2.75-1.56,4.28-1.88
		c5.52-1.15,2.98,4.87,1.51,7.39c-2.15,3.68-4.71,7.1-7.27,10.51c-2.29,3.05-5.42,6.29-6.73,9.91c-0.66,1.83-0.35,4.92,0.85,6.25
		c0.1,0.11,0.23,0.2,0.37,0.29c3.64-4.88,7.48-9.6,11.21-14.41C191.96,26.63,201.96,16.37,196.31,11.02z M144.36,49.41
		c-0.42,0.5-0.86,1.26-1.1,1.61c-6.86,10.05-14.34,19.93-23.24,28.34c-4.71,4.15-9.58,8.42-15.21,11.25
		c-2.08,1.05-6.47,3.19-9.82,3.19c-1.28,0-2.39-0.31-3.18-1.09c-0.77-0.77-1.09-1.75-1.09-2.86c0-2.29,1.37-5.15,2.99-7.71
		c1.62-2.57,3.49-4.85,4.49-6.03c10.5-12.4,26.28-20,41.11-26l0.11,1.51c1.62-0.84,3.24-1.66,4.87-2.47
		c0.11-0.05,0.22-0.12,0.44-0.16L144.36,49.41L144.36,49.41z"/>
	<path d="M54.28,40.76c0,0-0.38,0.26-1.03,0.65c-1.97,1.17-6.49,3.5-10.95,3.49c-1.67,0-2.7-0.41-3.31-1
		c-0.61-0.59-0.81-1.38-0.81-2.17c0-0.75,0.18-1.49,0.37-2.05c0.09-0.28,0.18-0.51,0.25-0.67s0.11-0.25,0.11-0.25l-0.12-0.06
		c0,0-0.75,1.49-0.75,3.04c0,0.81,0.21,1.64,0.85,2.27c0.64,0.63,1.71,1.04,3.4,1.04c6.01,0,12.05-4.16,12.06-4.17L54.28,40.76
		L54.28,40.76z"/>
	<path d="M63.05,31.08c0.11-0.15,0.22-0.3,0.33-0.45l0.44-0.6l0,0c1.63-2.21,3.27-4.41,4.91-6.61c1.45-1.94,3.02-3.85,4.11-6.03
		c0.56-1.13,0.99-2.38,1.07-3.65l0-0.02c0.06-1.03-0.14-2.06-0.43-3.03c-0.28-1.12-2.26-0.05-2.26-0.05l-2.75,2.25
		c0.03,1.22-0.8,2.08-1.48,3.03c-1.32,1.84-2.77,3.59-4.08,5.44c-3.43,4.89-7.13,9.65-9.97,14.87c-0.74,1.36-0.82,3.71-0.33,5.48
		l0.04,0.16c0.01,0.03,1.51-0.96,1.65-1.05c0.63-0.44,1.25-0.9,1.85-1.39c1.18-0.96,2.27-2.03,3.16-3.27
		c1.05-1.45,2.11-2.89,3.17-4.34l0.56-0.77L63.05,31.08z"/>
	<path d="M95.82,8.49c-6.12,1.43-11.14,4.35-15.29,8.29l-2.36,2.23c-0.48,0.43-0.97,0.87-1.48,1.33c0.76-0.05,1.49-0.08,1.49-0.08
		c2.42,0.01,4.82-0.31,7.17-0.89c1.51-0.37,2.43-1.54,3.37-2.67c1.66-2.01,3.53-3.88,5.56-5.52c1.72-1.39,3.8-2.87,6.08-3.06
		l0.11-0.01C99.17,7.92,97.64,8.07,95.82,8.49z"/>
	<path d="M54.35,40.88c0,0,3.14-2.08,5.03-4.67c0.93-1.27,4.31-4.35,7.94-7.54c3.63-3.19,7.5-6.51,9.42-8.29l0,0
		c0,0,0.21-0.21,0.56-0.56c1.05-1.04,3.36-3.27,5.04-4.56l-0.08-0.11c-2.25,1.72-5.61,5.13-5.61,5.13l0.05,0.05l-0.05-0.05
		c-1.92,1.78-5.79,5.09-9.42,8.28c-3.63,3.19-7.01,6.26-7.96,7.56c-0.93,1.28-2.18,2.44-3.2,3.28c-0.51,0.42-0.96,0.76-1.28,0.99
		c-0.32,0.23-0.52,0.36-0.52,0.36L54.35,40.88L54.35,40.88z"/>
	<path d="M55.76,11.37l-0.02-0.09c-0.03-0.11-0.07-0.21-0.11-0.31c-0.22-0.59-0.55-1.07-0.95-1.44c-1.47-1.36-3.93-1.38-5.88-0.6
		c-1.4,0.56-2.76,1.24-4.09,2c-0.47,0.23-0.8,0.36-0.96,0.44l-0.08,0.04l-0.05,0.03c-2.03,1.08-3.87,1.78-5.19,2.21
		c-0.66,0.22-1.2,0.36-1.57,0.46c-0.35,0.09-0.54,0.13-0.57,0.13c-0.06-1.53-0.54-2.99-1.69-4.2c-1.49-1.57-3.74-1.9-5.81-1.67
		c-7.03,0.79-14.44,5.43-19.44,10.24c-5.42,5.21-10.8,13.49-9.26,21.3c0.75,3.81,3.86,5.75,7.65,4.88
		c4.69-1.08,8.88-3.44,12.54-6.52c1.81-1.52,3.5-3.19,5.15-4.89c2.66-2.74,5.24-5.72,7.3-9.01c0.56-0.89,1.08-1.81,1.55-2.74
		c0.28-0.56,0.55-1.14,0.79-1.72c0.25-0.61,0.48-1.23,0.67-1.86c0.19-0.63,0.34-1.28,0.44-1.93c0.03-0.21,0.06-0.43,0.08-0.64
		c0.02-0.19,0.05-0.4,0.01-0.59c-0.06-0.28-0.44-0.3-0.67-0.3l-0.21,0v-0.19l0.91,0c0,0,3.3-0.65,7.38-2.82l0.03-0.02
		c0.43,0.28,0.77,0.7,0.91,1.23c-0.07-0.29,1.71-1.16,1.94-1.28c1.01-0.57,3.62-1.52,3.86,0.28l0.01,0.1
		c0.01,0.11,0.02,0.21,0.02,0.32c0.07,2.01-1.4,3.76-2.55,5.25c-1.01,1.32-2.05,2.63-3,3.99c-2.3,3.28-4.7,6.48-6.91,9.82
		c-0.16,0.24-0.31,0.47-0.47,0.71c-0.24,0.32-0.48,0.65-0.72,0.97c-0.95,1.47-1.83,2.99-2.26,4.61c-0.34,1.27-0.41,2.61-0.02,4.04
		c0.1,0.38,0.24,0.71,0.4,1.01l0.02,0.04l0.08,0.13l-0.03,0.03c-0.98,1.21-2.44,1.9-3.98,2.09c-0.73,0.09-1.59,0-2.23-0.37
		c-0.62-0.35-1.08-0.94-1.42-1.55c-0.44-0.8-0.64-1.77-0.4-2.67c0.26-0.99,1.05-1.76,1.81-2.4l0.08-0.06
		c0.64-0.53,1.32-1.02,1.8-1.7c0.4-0.56,0.63-1.22,1.05-1.77c-0.96-0.36-1.99-0.72-2.99-0.5c-0.65,0.14-1.23,0.53-1.72,0.98
		c-1.15,1.06-1.89,2.56-2.03,4.12c-0.21,2.28,0.8,4.67,3.02,5.56c0.45,0.18,0.92,0.37,1.4,0.46c0.54,0.11,1.1,0.1,1.65,0.03
		c0.8-0.1,1.6-0.35,2.35-0.72c0.68-0.33,1.3-0.75,1.87-1.22l0.01,0.02c0.55,0.72,1.35,1.22,2.2,1.52c0.85,0.3,1.76,0.4,2.67,0.45
		c2.32,0.12,4.53-0.23,6.79-0.75c-2.1,0.38-4.73,0.81-6.74,0.07c-3.19-1.18-0.85-5.16,0.37-7.1c1.26-2,2.74-3.88,4.17-5.75
		c2.29-2.99,4.65-5.95,6.81-9.03c0.1-0.14,0.18-0.28,0.28-0.42c1-1.31,1.99-2.65,2.75-4.1c0.77-1.46,1.43-3.28,1.42-5.03
		C55.97,12.42,55.9,11.88,55.76,11.37z M31.96,22.48c-1.34,2.47-2.96,4.78-4.75,6.94c-3.47,4.19-7.58,7.88-12.06,10.96
		c-2.43,1.67-7.17,4.2-10.03,2.24c-3.72-2.55-0.74-7.27,1.14-9.98c3.03-4.38,6.53-8.49,10.23-12.32c3.84-3.97,7.71-7.94,13.01-9.84
		c3.22-1.15,5.37,0.86,5.25,5.14C34.68,17.78,32.96,20.62,31.96,22.48z"/>
	<path d="M47.91,43.94c0,0-0.36,0.11-0.89,0.25C47.34,44.13,47.63,44.05,47.91,43.94z"/>
	<polygon points="35.4,43.01 35.24,43.04 35.18,42.95 35.25,42.89 35.37,42.92 	"/>
</g>
</svg>
